<svg width="402" height="874" viewBox="0 0 402 874" fill="none" xmlns="http://www.w3.org/2000/svg">
<rect width="402" height="874" fill="#DDDBDB"/>
<rect x="47" y="302" width="200" height="150" fill="#F3F3F3"/>
<rect width="100" height="150" transform="matrix(-1 0 0 1 354 302)" fill="#F3F3F3"/>
<path d="M71.8 369.574C70.76 369.574 69.76 369.464 68.8 369.244C67.86 369.024 67.03 368.674 66.31 368.194C65.59 367.694 65.02 367.054 64.6 366.274C64.18 365.494 63.97 364.544 63.97 363.424C63.97 363.344 63.97 363.254 63.97 363.154C63.97 363.034 63.98 362.924 64 362.824H66.97C66.95 362.944 66.94 363.054 66.94 363.154C66.94 363.254 66.94 363.364 66.94 363.484C66.94 364.304 67.14 364.974 67.54 365.494C67.94 366.014 68.5 366.394 69.22 366.634C69.94 366.874 70.78 366.994 71.74 366.994C72.7 366.994 73.53 366.894 74.23 366.694C74.93 366.474 75.47 366.114 75.85 365.614C76.25 365.114 76.45 364.454 76.45 363.634C76.45 362.894 76.23 362.304 75.79 361.864C75.35 361.424 74.77 361.074 74.05 360.814C73.35 360.534 72.57 360.284 71.71 360.064C70.87 359.844 70.02 359.604 69.16 359.344C68.32 359.084 67.54 358.744 66.82 358.324C66.12 357.904 65.55 357.344 65.11 356.644C64.67 355.924 64.45 355.014 64.45 353.914C64.45 352.654 64.79 351.614 65.47 350.794C66.15 349.974 67.05 349.374 68.17 348.994C69.29 348.594 70.52 348.394 71.86 348.394C73.2 348.394 74.42 348.594 75.52 348.994C76.62 349.374 77.49 349.984 78.13 350.824C78.79 351.644 79.12 352.734 79.12 354.094V354.484H76.21V354.004C76.21 353.324 76.02 352.754 75.64 352.294C75.28 351.814 74.77 351.454 74.11 351.214C73.47 350.974 72.72 350.854 71.86 350.854C71.06 350.854 70.34 350.954 69.7 351.154C69.06 351.354 68.55 351.664 68.17 352.084C67.81 352.504 67.63 353.054 67.63 353.734C67.63 354.434 67.84 354.994 68.26 355.414C68.7 355.834 69.27 356.174 69.97 356.434C70.69 356.674 71.48 356.894 72.34 357.094C73.2 357.294 74.05 357.524 74.89 357.784C75.75 358.044 76.53 358.384 77.23 358.804C77.95 359.224 78.53 359.794 78.97 360.514C79.43 361.214 79.66 362.114 79.66 363.214C79.66 364.754 79.31 365.994 78.61 366.934C77.93 367.854 76.99 368.524 75.79 368.944C74.61 369.364 73.28 369.574 71.8 369.574ZM84.2683 369.274L80.7883 353.944H83.2783L85.9183 365.074H86.0383L88.5283 353.944H91.3783L93.6883 365.074H93.8083L96.3883 353.944H98.7883L95.3983 369.274H92.3683L89.9983 357.814H89.8783L87.2683 369.274H84.2683ZM107.117 369.274V356.284H101.627V353.944H110.117V369.274H107.117ZM101.627 369.274V366.964H115.307V369.274H101.627ZM106.997 350.794V347.914H109.817V350.794H106.997ZM123.575 369.274V356.284H119.285V353.944H123.575V352.354C123.575 351.234 123.835 350.314 124.355 349.594C124.875 348.874 125.585 348.334 126.485 347.974C127.385 347.614 128.385 347.434 129.485 347.434C130.085 347.434 130.725 347.504 131.405 347.644C132.085 347.764 132.645 347.934 133.085 348.154V350.284C132.685 350.124 132.245 349.984 131.765 349.864C131.285 349.724 130.775 349.654 130.235 349.654C129.595 349.654 128.995 349.744 128.435 349.924C127.875 350.084 127.425 350.374 127.085 350.794C126.765 351.214 126.605 351.824 126.605 352.624V353.944H132.695V356.284H126.605V369.274H123.575ZM119.255 369.274V366.964H132.875V369.274H119.255ZM146.543 369.574C144.743 369.574 143.313 369.184 142.253 368.404C141.193 367.604 140.663 366.304 140.663 364.504V356.284H136.223V353.944H140.753L141.803 349.054H143.663V353.944H150.593V356.284H143.663V364.264C143.663 364.944 143.803 365.504 144.083 365.944C144.363 366.384 144.773 366.704 145.313 366.904C145.853 367.104 146.533 367.204 147.353 367.204C147.993 367.204 148.583 367.124 149.123 366.964C149.683 366.784 150.173 366.594 150.593 366.394V368.704C150.113 368.984 149.503 369.194 148.763 369.334C148.023 369.494 147.283 369.574 146.543 369.574ZM157.661 374.854C157.241 374.854 156.841 374.814 156.461 374.734C156.101 374.674 155.751 374.574 155.411 374.434V372.214C155.631 372.314 155.911 372.404 156.251 372.484C156.591 372.584 156.921 372.634 157.241 372.634C157.801 372.634 158.241 372.504 158.561 372.244C158.881 372.004 159.161 371.614 159.401 371.074C159.661 370.554 159.961 369.854 160.301 368.974L154.361 353.944H157.571L161.831 365.284H162.011L166.181 353.944H169.121L163.361 368.644C162.921 369.784 162.451 370.824 161.951 371.764C161.471 372.704 160.891 373.454 160.211 374.014C159.531 374.574 158.681 374.854 157.661 374.854ZM71.62 405.574C70.52 405.574 69.5 405.414 68.56 405.094C67.64 404.774 66.83 404.264 66.13 403.564C65.43 402.844 64.88 401.894 64.48 400.714C64.1 399.534 63.91 398.084 63.91 396.364V393.604C63.91 391.884 64.11 390.434 64.51 389.254C64.91 388.074 65.46 387.134 66.16 386.434C66.86 385.714 67.67 385.194 68.59 384.874C69.53 384.554 70.53 384.394 71.59 384.394H72.01C73.57 384.394 74.9 384.694 76 385.294C77.12 385.894 77.97 386.804 78.55 388.024C79.13 389.224 79.42 390.734 79.42 392.554H76.39C76.39 391.234 76.24 390.164 75.94 389.344C75.66 388.504 75.18 387.894 74.5 387.514C73.82 387.114 72.91 386.914 71.77 386.914C71.11 386.914 70.5 387.014 69.94 387.214C69.4 387.394 68.92 387.714 68.5 388.174C68.08 388.614 67.75 389.224 67.51 390.004C67.27 390.784 67.15 391.764 67.15 392.944V396.994C67.15 398.174 67.27 399.164 67.51 399.964C67.75 400.744 68.08 401.364 68.5 401.824C68.92 402.264 69.4 402.584 69.94 402.784C70.5 402.964 71.11 403.054 71.77 403.054C73.49 403.054 74.7 402.614 75.4 401.734C76.12 400.834 76.48 399.404 76.48 397.444H79.42C79.42 399.204 79.13 400.684 78.55 401.884C77.97 403.084 77.13 404.004 76.03 404.644C74.93 405.264 73.6 405.574 72.04 405.574H71.62ZM89.7883 405.574C88.3083 405.574 87.0383 405.244 85.9783 404.584C84.9183 403.924 84.1083 403.014 83.5483 401.854C82.9883 400.674 82.7083 399.344 82.7083 397.864V397.354C82.7083 395.834 82.9883 394.494 83.5483 393.334C84.1083 392.174 84.9183 391.274 85.9783 390.634C87.0383 389.974 88.2983 389.644 89.7583 389.644C91.2583 389.644 92.5383 389.974 93.5983 390.634C94.6583 391.294 95.4683 392.204 96.0283 393.364C96.5883 394.524 96.8683 395.854 96.8683 397.354V397.864C96.8683 399.384 96.5883 400.724 96.0283 401.884C95.4683 403.044 94.6583 403.954 93.5983 404.614C92.5383 405.254 91.2683 405.574 89.7883 405.574ZM89.7883 403.444C90.9483 403.444 91.8983 403.024 92.6383 402.184C93.3783 401.324 93.7483 400.134 93.7483 398.614V396.604C93.7483 395.084 93.3783 393.904 92.6383 393.064C91.8983 392.204 90.9483 391.774 89.7883 391.774C88.6483 391.774 87.6983 392.204 86.9383 393.064C86.1983 393.904 85.8283 395.084 85.8283 396.604V398.614C85.8283 400.134 86.1983 401.324 86.9383 402.184C87.6983 403.024 88.6483 403.444 89.7883 403.444ZM100.367 405.274V389.944H102.137L102.437 391.654C102.737 390.994 103.157 390.494 103.697 390.154C104.257 389.814 104.857 389.644 105.497 389.644C106.177 389.644 106.777 389.824 107.297 390.184C107.837 390.544 108.237 391.074 108.497 391.774C108.857 391.074 109.297 390.544 109.817 390.184C110.357 389.824 111.017 389.644 111.797 389.644C112.897 389.644 113.737 389.994 114.317 390.694C114.917 391.394 115.217 392.394 115.217 393.694V405.274H112.637V394.234C112.637 392.734 112.077 391.984 110.957 391.984C110.417 391.984 109.967 392.194 109.607 392.614C109.247 393.034 109.067 393.574 109.067 394.234V405.274H106.517V394.234C106.517 392.734 105.937 391.984 104.777 391.984C104.237 391.984 103.787 392.194 103.427 392.614C103.087 393.034 102.917 393.574 102.917 394.234V405.274H100.367ZM119.495 410.704V389.944H121.925L122.255 392.134C122.695 391.314 123.315 390.694 124.115 390.274C124.935 389.854 125.905 389.644 127.025 389.644C128.185 389.644 129.215 389.924 130.115 390.484C131.035 391.024 131.755 391.864 132.275 393.004C132.815 394.144 133.085 395.624 133.085 397.444V397.834C133.085 399.514 132.805 400.934 132.245 402.094C131.685 403.234 130.935 404.104 129.995 404.704C129.075 405.284 128.045 405.574 126.905 405.574C125.885 405.574 124.995 405.384 124.235 405.004C123.495 404.624 122.915 404.154 122.495 403.594V410.704H119.495ZM126.305 403.414C127.405 403.414 128.305 403.014 129.005 402.214C129.705 401.414 130.055 400.174 130.055 398.494V396.754C130.055 395.534 129.885 394.564 129.545 393.844C129.205 393.124 128.745 392.604 128.165 392.284C127.605 391.944 126.985 391.774 126.305 391.774C125.645 391.774 125.025 391.934 124.445 392.254C123.865 392.554 123.395 393.074 123.035 393.814C122.675 394.534 122.495 395.514 122.495 396.754V398.494C122.495 400.174 122.855 401.414 123.575 402.214C124.295 403.014 125.205 403.414 126.305 403.414ZM141.683 405.574C140.103 405.574 138.883 405.204 138.023 404.464C137.183 403.724 136.763 402.634 136.763 401.194C136.763 399.994 137.083 399.034 137.723 398.314C138.383 397.574 139.433 397.034 140.873 396.694C142.333 396.354 144.253 396.184 146.633 396.184V394.504C146.633 393.544 146.383 392.844 145.883 392.404C145.403 391.964 144.583 391.744 143.423 391.744C142.363 391.744 141.543 391.964 140.963 392.404C140.383 392.844 140.093 393.464 140.093 394.264V394.624H137.333C137.293 394.304 137.263 394.094 137.243 393.994C137.243 393.894 137.243 393.854 137.243 393.874C137.243 393.894 137.243 393.924 137.243 393.964C137.263 394.004 137.273 394.004 137.273 393.964C137.273 392.644 137.833 391.594 138.953 390.814C140.093 390.034 141.613 389.644 143.513 389.644C145.533 389.644 147.053 390.034 148.073 390.814C149.113 391.594 149.633 392.784 149.633 394.384V402.514C149.633 402.834 149.713 403.064 149.873 403.204C150.033 403.344 150.243 403.414 150.503 403.414C150.963 403.414 151.363 403.294 151.703 403.054V405.004C151.443 405.184 151.123 405.324 150.743 405.424C150.363 405.524 149.963 405.574 149.543 405.574C148.943 405.574 148.453 405.494 148.073 405.334C147.693 405.194 147.413 404.944 147.233 404.584C147.053 404.224 146.933 403.724 146.873 403.084C146.533 403.704 146.093 404.204 145.553 404.584C145.013 404.944 144.413 405.194 143.753 405.334C143.093 405.494 142.403 405.574 141.683 405.574ZM142.613 403.444C143.533 403.444 144.283 403.244 144.863 402.844C145.463 402.444 145.903 401.904 146.183 401.224C146.483 400.544 146.633 399.784 146.633 398.944V398.014C144.913 398.014 143.543 398.114 142.523 398.314C141.523 398.494 140.803 398.804 140.363 399.244C139.943 399.664 139.733 400.264 139.733 401.044C139.733 401.844 139.963 402.444 140.423 402.844C140.903 403.244 141.633 403.444 142.613 403.444ZM155.321 405.274V389.944H157.751L158.051 392.134C158.511 391.274 159.161 390.644 160.001 390.244C160.841 389.844 161.771 389.644 162.791 389.644C164.471 389.644 165.811 390.114 166.811 391.054C167.811 391.994 168.311 393.384 168.311 395.224V405.274H165.311V396.094C165.311 394.654 165.011 393.604 164.411 392.944C163.831 392.284 163.011 391.954 161.951 391.954C161.211 391.954 160.571 392.144 160.031 392.524C159.491 392.884 159.071 393.394 158.771 394.054C158.471 394.694 158.321 395.434 158.321 396.274V405.274H155.321ZM179.07 405.274V392.284H173.58V389.944H182.07V405.274H179.07ZM173.58 405.274V402.964H187.26V405.274H173.58ZM178.95 386.794V383.914H181.77V386.794H178.95ZM197.718 405.574C196.238 405.574 194.968 405.244 193.908 404.584C192.848 403.924 192.038 403.014 191.478 401.854C190.918 400.674 190.638 399.344 190.638 397.864V397.354C190.638 395.834 190.918 394.494 191.478 393.334C192.038 392.174 192.848 391.274 193.908 390.634C194.968 389.974 196.228 389.644 197.688 389.644C199.188 389.644 200.468 389.974 201.528 390.634C202.588 391.294 203.398 392.204 203.958 393.364C204.518 394.524 204.798 395.854 204.798 397.354V397.864C204.798 399.384 204.518 400.724 203.958 401.884C203.398 403.044 202.588 403.954 201.528 404.614C200.468 405.254 199.198 405.574 197.718 405.574ZM197.718 403.444C198.878 403.444 199.828 403.024 200.568 402.184C201.308 401.324 201.678 400.134 201.678 398.614V396.604C201.678 395.084 201.308 393.904 200.568 393.064C199.828 392.204 198.878 391.774 197.718 391.774C196.578 391.774 195.628 392.204 194.868 393.064C194.128 393.904 193.758 395.084 193.758 396.604V398.614C193.758 400.134 194.128 401.324 194.868 402.184C195.628 403.024 196.578 403.444 197.718 403.444ZM209.286 405.274V389.944H211.716L212.016 392.134C212.476 391.274 213.126 390.644 213.966 390.244C214.806 389.844 215.736 389.644 216.756 389.644C218.436 389.644 219.776 390.114 220.776 391.054C221.776 391.994 222.276 393.384 222.276 395.224V405.274H219.276V396.094C219.276 394.654 218.976 393.604 218.376 392.944C217.796 392.284 216.976 391.954 215.916 391.954C215.176 391.954 214.536 392.144 213.996 392.524C213.456 392.884 213.036 393.394 212.736 394.054C212.436 394.694 212.286 395.434 212.286 396.274V405.274H209.286Z" fill="#383535"/>
<line x1="63" y1="493.5" x2="213" y2="493.5" stroke="#F95C1C" stroke-width="5"/>
<line x1="63" y1="522.5" x2="183" y2="522.5" stroke="#F95C1C" stroke-width="5"/>
<line x1="63" y1="552.5" x2="183" y2="552.5" stroke="#F95C1C" stroke-width="5"/>
<line x1="63" y1="582.5" x2="333" y2="582.5" stroke="#26262A" stroke-width="5"/>
</svg>
